<?xml version="1.0" encoding="utf-8"?>

<svg xmlns="http://www.w3.org/2000/svg">
    <defs>
        <g id="icon-lock">
            <path d="M86.4 480h339.2c12.3 0 22.4-9.9 22.4-22.1V246c0-12.2-10-22-22.4-22H404v-30.9c0-41.5-16.2-87.6-42.6-115.4-26.3-27.8-64-45.7-105.3-45.7h-.1-.1c-41.3 0-79 17.9-105.3 45.6C124.2 105.4 108 151.5 108 193v31H86.4C74 224 64 233.9 64 246v211.9c0 12.2 10 22.1 22.4 22.1zM161 193.1c0-27.3 9.9-61.1 28.1-80.3v-.3C206.7 93.9 231 83 255.9 83h.2c24.9 0 49.2 10.9 66.8 29.5v.2l-.1.1c18.3 19.2 28.1 53 28.1 80.3V224H161v-30.9z"/>
        </g>

        <g id="icon-clock">
            <circle cx="12" cy="12" r="10"/><path d="M12 6v6l3 3"/>
        </g>

        <g id="icon-copy">
            <rect fill="none" height="13" rx="2" ry="2" stroke-linecap="round" stroke-linejoin="round" stroke-width="2" width="13" x="9" y="9"/><path d="M5 15H4a2 2 0 01-2-2V4a2 2 0 012-2h9a2 2 0 012 2v1" fill="none" stroke-linecap="round" stroke-linejoin="round" stroke-width="2"/>
        </g>

        <g id="icon-play-triangle">
            <path d="M405.2 232.9L126.8 67.2c-3.4-2-6.9-3.2-10.9-3.2-10.9 0-19.8 9-19.8 20H96v344h.1c0 11 8.9 20 19.8 20 4.1 0 7.5-1.4 11.2-3.4l278.1-165.5c6.6-5.5 10.8-13.8 10.8-23.1s-4.2-17.5-10.8-23.1z"/>
        </g>

        <g id="icon-wifi">
            <path d="M48 60a12 12 0 1012 12 12.008 12.008 0 00-12-12zM22.605 46.629a6 6 0 108.508 8.461 24.226 24.226 0 0133.774 0 5.951 5.951 0 004.254 1.77 6 6 0 004.254-10.23c-13.618-13.712-37.172-13.712-50.79-.001z"/><path d="M90.27 29.777a59.141 59.141 0 00-84.539 0 6 6 0 108.531 8.438c18.117-18.328 49.36-18.328 67.477 0a6 6 0 108.531-8.438z"/>
        </g>

        <g id="icon-3dots">
            <path d="M13.001 26a6.002 6.002 0 10.001 12.003A6.002 6.002 0 0013.001 26zm38 0a6.002 6.002 0 000 12.003 6.002 6.002 0 000-12.003zm-19 0a6.002 6.002 0 10.001 12.003A6.002 6.002 0 0032.001 26z"/>
        </g>

        <g id="icon-layout-list">
            <path d="M0 0h4v4H0zM6 0h4v4H6zM12 0h4v4h-4zM0 6h4v4H0zM6 6h4v4H6zM12 6h4v4h-4zM0 12h4v4H0zM6 12h4v4H6zM12 12h4v4h-4z"/>
        </g>

        <g id="icon-layout-cards">
            <path d="M19 8H5a1 1 0 010-2h14a1 1 0 010 2zM19 13H5a1 1 0 010-2h14a1 1 0 010 2zM19 18H5a1 1 0 010-2h14a1 1 0 010 2z"/>
        </g>

        <!-- viewBox="0 0 64 64" -->
        <g id="icon-arrow-down">
            <path d="M53 23a3 3 0 00-5.082-2.159l-.001-.001-15.924 15.924-15.718-15.718a3 3 0 10-4.44 4.029l-.008.008 18 18 .001-.001a2.99 2.99 0 002.159.918h.014a2.99 2.99 0 002.159-.918l.001.001 18-18-.001-.001c.52-.539.84-1.273.84-2.082z"/>
        </g>

        <g id="icon-filter">
            <path d="M13 28a1 1 0 01-.53-.15A1 1 0 0112 27v-9.62L4.28 8.81A5 5 0 013 5.46V5a1 1 0 011-1h24a1 1 0 011 1v.46a5 5 0 01-1.28 3.35L20 17.38v5.38a3 3 0 01-1.66 2.69l-4.89 2.44A1 1 0 0113 28zM5.05 6a3 3 0 00.72 1.47l8 8.86A1 1 0 0114 17v8.38l3.45-1.72a1 1 0 00.55-.9V17a1 1 0 01.26-.67l8-8.86A3 3 0 0027 6z" data-name="Layer 2"/><path fill="none" d="M0 0h32v32H0z"/>
        </g>

        <g id="icon-X">
            <path d="M443.6 387.1L312.4 255.4l131.5-130c5.4-5.4 5.4-14.2 0-19.6l-37.4-37.6c-2.6-2.6-6.1-4-9.8-4-3.7 0-7.2 1.5-9.8 4L256 197.8 124.9 68.3c-2.6-2.6-6.1-4-9.8-4-3.7 0-7.2 1.5-9.8 4L68 105.9c-5.4 5.4-5.4 14.2 0 19.6l131.5 130L68.4 387.1c-2.6 2.6-4.1 6.1-4.1 9.8 0 3.7 1.4 7.2 4.1 9.8l37.4 37.6c2.7 2.7 6.2 4.1 9.8 4.1 3.5 0 7.1-1.3 9.8-4.1L256 313.1l130.7 131.1c2.7 2.7 6.2 4.1 9.8 4.1 3.5 0 7.1-1.3 9.8-4.1l37.4-37.6c2.6-2.6 4.1-6.1 4.1-9.8-.1-3.6-1.6-7.1-4.2-9.7z"/>
        </g>

        <g id="icon-bell">
            <path d="M52 45a3 3 0 01-3-3V22c0-7.732-6.268-14-14-14a3 3 0 10-6 0c-7.732 0-14 6.268-14 14v20c0 1.657-1.343 3-3 3a3 3 0 100 6h40a3 3 0 100-6zM32 60a6 6 0 006-6H26a6 6 0 006 6z"/>
        </g>

        <g id="icon-checkmark">
            <path d="M50 18a2.99 2.99 0 00-2.121.879L27 39.757 16.121 28.879a3 3 0 10-4.242 4.242l13 13c.543.543 1.293.879 2.121.879s1.578-.336 2.121-.879l23-23A3 3 0 0050 18z"/>
        </g>

        <g id="icon-deny">
            <path d="M480 20c133.333 0 246.667 46.667 340 140s140 206.667 140 340c0 132-46.667 245-140 339S613.333 980 480 980c-132 0-245-47-339-141S0 632 0 500c0-133.333 47-246.667 141-340S348 20 480 20M116 500c0 88 27.333 164.667 82 230l514-514c-66.667-54.667-144-82-232-82-101.333 0-187.333 35.667-258 107S116 398.667 116 500m364 364c101.333 0 187.667-35.667 259-107s107-157 107-257c0-86.667-27.333-164-82-232L250 782c65.333 54.667 142 82 230 82"/>
        </g>

        <g id="icon-activity">
            <path d="M22 12h-4l-3 9L9 3l-3 9H2"/>
        </g>

        <g id="icon-trending-up">
            <path d="M23 6l-9.5 9.5-5-5L1 18"/><path d="M17 6h6v6"/>
        </g>

        <!-- viewBox="0 0 900.378 1000" -->
        <g id="icon-home">
            <path d="M888.188 514c10.667 10.667 14.333 19.667 11 27-3.333 7.333-12.333 11-27 11h-84v310c0 9.333-.333 16.333-1 21-.667 4.667-3.333 9-8 13s-12.333 6-23 6h-204V592h-204v310h-194c-18.667 0-30.333-3.333-35-10-4.668-6.667-7-16.667-7-30V552h-84c-14.667 0-23.668-3.667-27-11-3.333-7.333.333-16.333 11-27l400-402c10.667-10.667 23.333-16 38-16 14.667 0 27.333 5.333 38 16l400 402"/>
        </g>

        <!-- viewBox="0 0 24 24" -->
        <g id="icon-info">
            <circle cx="12" cy="12" r="10"/><path d="M12 16v-4M12 8h.01"/>
        </g>

        <!-- viewBox="0 0 20 20" -->
        <g id="icon-flag">
            <path fill="#06B6D4" d="M18.926 5.584c-9.339 13.568-6.142-.26-14.037 6.357L6.684 19H4.665L1 4.59l1.85-.664c8.849-6.471 4.228 5.82 15.637 1.254.364-.147.655.09.439.404z"/>
        </g>

        <!-- viewBox="0 0 20 20" -->
        <g id="icon-backintime">
            <path d="M11 1.799c-4.445 0-8.061 3.562-8.169 7.996V10H.459l3.594 3.894L7.547 10H4.875v-.205C4.982 6.492 7.683 3.85 11 3.85c3.386 0 6.131 2.754 6.131 6.15S14.386 16.15 11 16.15a6.099 6.099 0 01-3.627-1.193l-1.406 1.504A8.13 8.13 0 0011 18.199c4.515 0 8.174-3.67 8.174-8.199S15.515 1.799 11 1.799zM10 5v5a1.01 1.01 0 00.293.707l3.2 3.2c.283-.183.55-.389.787-.628L12 11V5h-2z"/>
        </g>

        <!-- viewBox="0 0 20 20" -->
        <g id="icon-circle-equal">
            <path d="M16.8 3.2C15 1.3 12.7.4 10 .4s-4.9.9-6.8 2.8C1.3 5.1.4 7.4.4 10c0 2.6.9 4.9 2.8 6.8 1.9 1.9 4.1 2.8 6.8 2.8 2.6 0 4.9-1 6.9-2.9 1.8-1.8 2.7-4.1 2.7-6.7 0-2.7-.9-5-2.8-6.8zm-1.2 12.3c-1.6 1.6-3.5 2.4-5.6 2.4-2.1 0-4-.8-5.6-2.3C2.9 14 2.1 12.1 2.1 10c0-2.1.8-4 2.4-5.6C6 2.9 7.8 2.1 10 2.1s4 .8 5.6 2.3c1.5 1.5 2.3 3.4 2.3 5.6 0 2.2-.8 4-2.3 5.5zm-9-4.7h7v1.7h-7v-1.7zm0-3.1h7v1.7h-7V7.7z"/>
        </g>

        <!-- viewBox="0 0 20 20" -->
        <g id="icon-shuffle">
            <path d="M15.093 6.694h.92v2.862L20 5.532l-3.988-4.025v2.387h-.92c-3.694 0-5.776 2.738-7.614 5.152-1.652 2.172-3.08 4.049-5.386 4.049H0v2.799h2.093c3.694 0 5.776-2.736 7.614-5.152 1.652-2.173 3.08-4.048 5.386-4.048zM5.41 8.458c.158-.203.316-.412.477-.623a47.33 47.33 0 011.252-1.596C5.817 5.005 4.224 4.095 2.093 4.095H0v2.799h2.093c1.327 0 2.362.623 3.317 1.564zm10.602 4.836h-.92c-1.407 0-2.487-.701-3.491-1.738l-.303.397c-.441.58-.915 1.201-1.439 1.818 1.356 1.324 3 2.324 5.232 2.324h.92v2.398L20 14.468l-3.988-4.025v2.851z"/>
        </g>

        <!-- viewBox="0 0 20 20" -->
        <g id="icon-stopwatch">
            <path d="M7.376 6.745c-.447.275 1.197 4.242 1.598 4.888a1.206 1.206 0 002.053-1.266c-.397-.648-3.205-3.898-3.651-3.622zm-.335-4.343a8.98 8.98 0 015.918 0c.329.114.765-.115.572-.611-.141-.36-.277-.712-.332-.855-.131-.339-.6-.619-.804-.665C11.623.097 10.823 0 10 0S8.377.097 7.604.271c-.204.046-.672.326-.803.665l-.332.855c-.193.496.243.726.572.611zm12.057.784a10.132 10.132 0 00-1.283-1.285c-.153-.129-.603-.234-.888.051l-1.648 1.647a9.27 9.27 0 011.155.966c.362.361.677.752.966 1.155l1.647-1.647c.286-.286.181-.735.051-.887zM10 2.9A8.1 8.1 0 001.899 11 8.1 8.1 0 0010 19.101 8.1 8.1 0 0010 2.9zm0 14.201A6.1 6.1 0 1110.001 4.9 6.1 6.1 0 0110 17.1z"/>
        </g>

        <!-- viewBox="0 0 20 20" -->
        <g id="icon-hourglass">
            <path d="M15.6 4.576V2.228C15.6 1.439 13.092 0 10 0 6.907 0 4.4 1.439 4.4 2.228v2.348C4.4 6.717 8.277 8.484 8.277 10c0 1.514-3.877 3.281-3.877 5.422v2.35C4.4 18.56 6.907 20 10 20c3.092 0 5.6-1.44 5.6-2.229v-2.35c0-2.141-3.877-3.908-3.877-5.422 0-1.515 3.877-3.282 3.877-5.423zM5.941 2.328c.696-.439 2-1.082 4.114-1.082 2.113 0 4.006 1.082 4.006 1.082.142.086.698.383.317.609-.838.497-2.478 1.02-4.378 1.02s-3.484-.576-4.324-1.074c-.381-.225.265-.555.265-.555zM10.501 10c0 1.193.996 1.961 2.051 2.986.771.748 1.826 1.773 1.826 2.435v1.328c-.97-.483-3.872-.955-3.872-2.504 0-.783-1.013-.783-1.013 0 0 1.549-2.902 2.021-3.872 2.504v-1.328c0-.662 1.056-1.688 1.826-2.435C8.502 11.961 9.498 11.193 9.498 10s-.996-1.961-2.051-2.986c-.771-.75-1.826-1.775-1.826-2.438l-.046-.998C6.601 4.131 8.227 4.656 10 4.656c1.772 0 3.406-.525 4.433-1.078l-.055.998c0 .662-1.056 1.688-1.826 2.438-1.054 1.025-2.051 1.793-2.051 2.986z"/>
        </g>

        <!-- viewBox="0 0 20 20" -->
        <g id="icon-retweet">
            <path d="M5 13V8h2L3.5 4 0 8h2v6a2 2 0 002 2h9.482l-2.638-3H5zm4.156-6L6.518 4H16c1.104 0 2 .897 2 2v6h2l-3.5 4-3.5-4h2V7H9.156z"/>
        </g>

        <!-- viewBox="0 0 20 20" -->
        <g id="icon-trophy">
            <path d="M11.18 14.356c0-1.451 1.1-2.254 2.894-3.442C16.268 9.458 19 7.649 19 3.354a.703.703 0 00-.709-.699h-3.43C14.377 1.759 12.932.8 10 .8c-2.934 0-4.377.959-4.862 1.855H1.707A.703.703 0 001 3.354c0 4.295 2.73 6.104 4.926 7.559 1.794 1.188 2.894 1.991 2.894 3.442v1.311c-1.884.209-3.269.906-3.269 1.736 0 .994 1.992 1.799 4.449 1.799s4.449-.805 4.449-1.799c0-.83-1.385-1.527-3.269-1.736v-1.31zM13.957 9.3c.566-1.199 1.016-2.826 1.088-5.246h2.51c-.24 2.701-1.862 4.064-3.598 5.246zM10 2.026c2.732-.002 3.799 1.115 3.798 1.529 0 .418-1.066 1.533-3.798 1.535-2.732-.001-3.799-1.116-3.799-1.534C6.2 3.142 7.268 2.024 10 2.026zM2.445 4.054h2.509c.073 2.42.521 4.047 1.089 5.246-1.736-1.182-3.359-2.545-3.598-5.246z"/>
        </g>

        <!-- viewBox="0 0 20 20" -->
        <g id="icon-trash">
            <path d="M3.389 7.113L4.49 18.021c.061.461 2.287 1.977 5.51 1.979 3.225-.002 5.451-1.518 5.511-1.979l1.102-10.908C14.929 8.055 12.412 8.5 10 8.5c-2.41 0-4.928-.445-6.611-1.387zm9.779-5.603l-.859-.951C11.977.086 11.617 0 10.916 0H9.085c-.7 0-1.061.086-1.392.559l-.859.951C4.264 1.959 2.4 3.15 2.4 4.029v.17C2.4 5.746 5.803 7 10 7c4.198 0 7.601-1.254 7.601-2.801v-.17c0-.879-1.863-2.07-4.433-2.519zM12.07 4.34L11 3H9L7.932 4.34h-1.7s1.862-2.221 2.111-2.522c.19-.23.384-.318.636-.318h2.043c.253 0 .447.088.637.318.248.301 2.111 2.522 2.111 2.522h-1.7z"/>
        </g>

        <!-- viewBox="0 0 20 20" -->
        <g id="icon-heart">
            <path d="M17.19 4.155c-1.672-1.534-4.383-1.534-6.055 0L10 5.197 8.864 4.155c-1.672-1.534-4.382-1.534-6.054 0-1.881 1.727-1.881 4.52 0 6.246L10 17l7.19-6.599c1.88-1.726 1.88-4.52 0-6.246z"/>
        </g>

        <!-- viewBox="0 0 20 20" -->
        <g id="icon-brokenheart">
            <path d="M18.344 2.906a5.12 5.12 0 00-7.266 0L10 3.97 8.984 4.984 12.11 8.11l-2.343 2.344 1.796 1.781-1.109 1.11-2.89-2.89 2.343-2.345-3.125-3.125 2.11-2.109c-2-1.984-5.235-1.969-7.235.031a5.12 5.12 0 000 7.266L10 18.516l8.344-8.344c2-2 2-5.266 0-7.266zm0 0"/>
        </g>

        <!-- viewBox="0 0 20 20" -->
        <g id="icon-linegraph">
            <path d="M.69 11.331l1.363.338 1.026-1.611-1.95-.482a.904.904 0 10-.439 1.755zm17.791.261l-4.463 4.016-5.247-4.061a.905.905 0 00-.338-.162l-.698-.174-1.027 1.611 1.1.273 5.697 4.408a.915.915 0 001.168-.043l5.028-4.527a.9.9 0 00.064-1.277.912.912 0 00-1.284-.064zM8.684 7.18l4.887 3.129a.913.913 0 001.24-.246l5.027-7.242a.902.902 0 00-.231-1.26.91.91 0 00-1.265.23l-4.528 6.521-4.916-3.147a.915.915 0 00-.688-.123.914.914 0 00-.571.4L.142 17.209A.903.903 0 00.908 18.6a.908.908 0 00.768-.42l7.008-11z"/>
        </g>

        <!-- viewBox="0 0 20 20" -->
        <g id="icon-infinity">
            <path d="M15.902 5.6c-2.079 0-4.358 1.158-5.902 2.916C8.455 6.758 6.175 5.6 4.096 5.6 2.116 5.6 0 6.756 0 10s2.116 4.398 4.096 4.4c2.079 0 4.358-1.158 5.903-2.916 1.544 1.758 3.823 2.916 5.902 2.916C17.882 14.4 20 13.244 20 10s-2.118-4.4-4.098-4.4zM4.096 12.641C2.584 12.641 1.8 11.752 1.8 10s.784-2.641 2.296-2.641c1.673 0 3.614 1.086 4.807 2.641-1.193 1.555-3.134 2.641-4.807 2.641zm11.806 0c-1.673 0-3.614-1.086-4.807-2.641 1.192-1.555 3.135-2.641 4.807-2.641 1.512 0 2.298.889 2.298 2.641s-.786 2.641-2.298 2.641z"/>
        </g>

        <!-- viewBox="0 0 20 20" -->
        <g id="icon-human">
            <path d="M10 4a2 2 0 10-.001-4.001A2 2 0 0010 4zm5.978 7.583c-.385-1.775-1.058-4.688-2.042-5.894-.957-1.173-2.885-1.222-3.936-1.222-1.051 0-2.979.049-3.936 1.222-.984 1.206-1.657 4.119-2.042 5.894-.213.983 1.154 1.344 1.511.355.531-1.473.941-2.71 1.839-3.736C7.844 11.109 6.102 16.168 6 19a1 1 0 001.934.358C8.391 17.771 10 13.355 10 13.355s1.609 4.416 2.066 6.003A1 1 0 0014 19c-.102-2.832-1.844-7.891-1.372-10.797.898 1.026 1.308 2.263 1.839 3.736.356.988 1.724.627 1.511-.356z"/>
        </g>

        <!-- viewBox="0 0 20 20" -->
        <g id="icon-search">
            <path d="M17.545 15.467l-3.779-3.779a6.15 6.15 0 00.898-3.21c0-3.417-2.961-6.377-6.378-6.377A6.185 6.185 0 002.1 8.287c0 3.416 2.961 6.377 6.377 6.377a6.15 6.15 0 003.115-.844l3.799 3.801a.953.953 0 001.346 0l.943-.943c.371-.371.236-.84-.135-1.211zM4.004 8.287a4.282 4.282 0 014.282-4.283c2.366 0 4.474 2.107 4.474 4.474a4.284 4.284 0 01-4.283 4.283c-2.366-.001-4.473-2.109-4.473-4.474z"/>
        </g>

        <!-- viewBox="0 0 20 20" -->
        <g id="icon-updown">
            <path d="M10 1L5 8h10l-5-7zm0 18l5-7H5l5 7z"/>
        </g>

        <!-- viewBox="0 0 20 20" -->
        <g id="icon-addrect">
            <path d="M16 2H4c-1.1 0-2 .9-2 2v12c0 1.1.9 2 2 2h12c1.1 0 2-.9 2-2V4c0-1.1-.9-2-2-2zm-1 9h-4v4H9v-4H5V9h4V5h2v4h4v2z"/>
        </g>

        <!-- viewBox="0 0 96 96" -->
        <g id="icon-runningman">
            <path d="M83.6 24c-2-1-4.4-.3-5.4 1.7l-3.5 6.6-15.4-9.7c-.6-.4-1.3-.6-2.1-.6h-17c-1.5 0-2.8.8-3.5 2.1l-6.5 12c-1.1 1.9-.3 4.4 1.6 5.4.6.3 1.3.5 1.9.5 1.4 0 2.8-.8 3.5-2.1l5.4-9.9h5.9L30.8 63H14.2c-2.2 0-4 1.8-4 4s1.8 4 4 4h19c1.5 0 2.8-.8 3.5-2.1l7-12.9 11.5 10.7-.9 20.1c-.2 2.2 1.5 4.1 3.7 4.2h.2c2.1 0 3.9-1.7 4-3.8l1-22c.1-1.2-.4-2.3-1.3-3.1l-9.7-9 10.2-19L74 41.4c.9.6 2.1.8 3.2.5 1.1-.3 2-1 2.5-2l5.5-10.5c1.1-1.9.4-4.3-1.6-5.4z"/>
        </g>

        <!-- viewBox="0 0 20 20" -->
        <g id="icon-download">
            <path d="m19.059 10.898-3.171-7.927A1.543 1.543 0 0 0 14.454 2H12.02l.38 4.065h2.7L10 10.293 4.9 6.065h2.7L7.98 2H5.546c-.632 0-1.2.384-1.434.971L.941 10.898a4.25 4.25 0 0 0-.246 2.272l.59 3.539A1.544 1.544 0 0 0 2.808 18h14.383c.755 0 1.399-.546 1.523-1.291l.59-3.539a4.22 4.22 0 0 0-.245-2.272zm-2.1 4.347a.902.902 0 0 1-.891.755H3.932a.902.902 0 0 1-.891-.755l-.365-2.193A.902.902 0 0 1 3.567 12h12.867c.558 0 .983.501.891 1.052l-.366 2.193z"/>
        </g>

        <!-- viewBox="0 0 512 512" -->
        <g id="icon-discord">
            <path d="M447.249 82.455V474.57c-55.065-48.661-37.454-32.553-101.418-92.018L350 422.987H109.557c-24.698 0-44.806-20.106-44.806-45.026V82.455c0-24.917 20.107-45.025 44.806-45.025H402.44c24.7 0 44.809 20.108 44.809 45.025z" fill="#8a9cfe"/><path d="M353.481 162.233c-31.474-23.605-61.418-22.95-61.418-22.95l-3.06 3.498c37.157 11.365 54.425 27.758 54.425 27.758-51.921-28.456-112.91-28.46-163.273-6.338-8.088 3.715-12.896 6.338-12.896 6.338s18.142-17.267 57.485-28.632l-2.185-2.624s-29.945-.655-61.419 22.95c0 0-31.474 57.047-31.474 127.426 0 0 18.361 31.692 66.663 33.223 0 0 8.088-9.834 14.645-18.142-27.759-8.306-38.249-25.789-38.249-25.789 3.215 2.248 8.517 5.168 8.961 5.463 36.892 20.662 89.295 27.43 136.388 7.65 7.648-2.841 16.174-6.995 25.135-12.896 0 0-10.929 17.924-39.562 26.01 6.559 8.305 14.427 17.703 14.427 17.703 48.304-1.53 66.881-33.223 66.881-33.223 0-70.378-31.474-127.425-31.474-127.425zm-137.043 107.1c-12.24 0-22.295-10.928-22.295-24.262 0-13.333 9.836-24.261 22.295-24.261 12.458 0 22.513 10.928 22.294 24.261 0 13.334-9.836 24.262-22.294 24.262zm79.778 0c-12.239 0-22.294-10.928-22.294-24.262 0-13.333 9.836-24.261 22.294-24.261 12.459 0 22.295 10.928 22.295 24.261 0 13.334-9.836 24.262-22.295 24.262z" fill="#fdfdfd"/>
        </g>

        <!-- viewBox="0 0 512 512" -->
        <g id="icon-twitch">
            <path fill="#6441a5" d="m67.175 26.001-30.906 78.96V427.68h109.866v58.319h61.813l58.321-58.319h89.329l120.133-120.136V26.001z"/><path fill="#fff" d="m434.558 286.905-68.692 68.693H256.001l-58.322 58.319v-58.319H104.96V67.176h329.598z"/><path fill="#6441a5" d="M324.692 146.134h41.174v120.03h-41.174zM214.824 146.134h41.177v120.03h-41.177z"/>
        </g>

        <!-- viewBox="0 0 32 32" -->
        <g id="icon-twitter">
            <path d="M31.993 6.077a13.027 13.027 0 0 1-3.77 1.033 6.588 6.588 0 0 0 2.887-3.63 13.144 13.144 0 0 1-4.168 1.592A6.56 6.56 0 0 0 22.149 3a6.562 6.562 0 0 0-6.562 6.563c0 .514.057 1.016.169 1.496-5.455-.274-10.291-2.887-13.529-6.858a6.544 6.544 0 0 0-.888 3.3 6.564 6.564 0 0 0 2.919 5.464 6.544 6.544 0 0 1-2.972-.821l-.001.082a6.568 6.568 0 0 0 5.265 6.437 6.606 6.606 0 0 1-2.963.113 6.572 6.572 0 0 0 6.13 4.558 13.166 13.166 0 0 1-8.15 2.811c-.53 0-1.053-.031-1.566-.092A18.592 18.592 0 0 0 10.062 29c12.072 0 18.675-10.001 18.675-18.675 0-.284-.008-.568-.02-.85a13.315 13.315 0 0 0 3.276-3.398z" fill="#55ACEE"/>
        </g>

        <!-- viewBox="0 0 32 32" -->
        <g id="icon-warning">
            <path d="M19.511 17.98 10.604 1.348a.697.697 0 0 0-1.208 0L.49 17.98a.675.675 0 0 0 .005.68c.125.211.352.34.598.34h17.814a.694.694 0 0 0 .598-.34.677.677 0 0 0 .006-.68zM11 17H9v-2h2v2zm0-3.5H9V7h2v6.5z"/>
        </g>

        <!-- viewBox="0 0 56.693 56.693" -->
        <g id="icon-welcome">
            <path d="M53.196 28.184C52.352 16.997 41.577 8.44 29.133 9.067 16.689 9.696 7.285 19.273 8.129 30.46c.059.76.164 1.502.31 2.236L3.927 44.792l13.408.762c4.143 2.768 9.335 4.299 14.856 4.02 12.448-.63 21.85-10.206 21.005-21.39zm-22.652 7.71c0 .693-.16 1.211-.479 1.555-.32.342-.731.514-1.233.514-.511 0-.919-.174-1.222-.521-.306-.346-.458-.861-.458-1.547v-5.631h-7.319v5.631c0 .693-.16 1.211-.48 1.555-.32.342-.73.514-1.233.514-.511 0-.917-.174-1.222-.521-.305-.346-.457-.861-.457-1.547V22.703c0-.687.15-1.198.451-1.542.301-.342.71-.514 1.228-.514.51 0 .923.17 1.239.508.315.34.475.855.475 1.548v4.796h7.319v-4.796c0-.687.155-1.198.463-1.542.31-.342.714-.514 1.217-.514.51 0 .923.17 1.239.508.315.34.474.855.474 1.548v13.191zm6.544.171c0 .625-.148 1.096-.446 1.416-.297.32-.673.48-1.13.48s-.828-.166-1.114-.492c-.284-.328-.429-.797-.429-1.404v-8.92c0-.617.145-1.081.429-1.395.286-.311.657-.467 1.114-.467s.833.156 1.13.467c.298.313.446.748.446 1.303v9.012zm-.457-12.637a1.579 1.579 0 0 1-1.086.404c-.433 0-.805-.133-1.113-.4-.309-.264-.463-.643-.463-1.13 0-.441.158-.804.475-1.091a1.596 1.596 0 0 1 1.102-.428c.404 0 .762.13 1.074.389.312.258.469.637.469 1.13-.001.48-.154.857-.458 1.126zm7.172 14.053a1.745 1.745 0 0 1-1.199.457 1.8 1.8 0 0 1-1.217-.451c-.346-.301-.519-.723-.519-1.262 0-.473.165-.875.497-1.205.33-.332.736-.498 1.216-.498s.889.166 1.228.498c.338.33.508.732.508 1.205-.001.532-.172.952-.514 1.256zm.433-12.666-.49 5.631c-.054.67-.168 1.184-.344 1.543-.175.357-.464.535-.867.535-.412 0-.697-.174-.857-.52-.159-.348-.273-.875-.342-1.582l-.365-5.47c-.068-1.066-.103-1.831-.103-2.296 0-.631.165-1.125.497-1.479.33-.354.766-.531 1.307-.531.655 0 1.093.227 1.314.68.221.453.33 1.105.33 1.959 0 .503-.027 1.012-.08 1.53z"/>
        </g>

        <!-- viewBox="0 0 20 20" -->
        <g id="icon-triangle-down">
            <path d="M5 6h10l-5 9-5-9z"/>
        </g>

        <!-- viewBox="0 0 20 20" -->
        <g id="icon-triangle-up">
            <path d="M15 14H5l5-9 5 9z"/>
        </g>

        <!-- viewBox="0 0 20 20" -->
        <g id="icon-chevron-up">
            <path d="M15.484 12.452c-.436.446-1.043.481-1.576 0L10 8.705l-3.908 3.747c-.533.481-1.141.446-1.574 0-.436-.445-.408-1.197 0-1.615.406-.418 4.695-4.502 4.695-4.502a1.095 1.095 0 0 1 1.576 0s4.287 4.084 4.695 4.502c.409.418.436 1.17 0 1.615z"/>
        </g>

        <!-- viewBox="0 0 20 20" -->
        <g id="icon-chevron-down">
            <path d="M4.516 7.548c.436-.446 1.043-.481 1.576 0L10 11.295l3.908-3.747c.533-.481 1.141-.446 1.574 0 .436.445.408 1.197 0 1.615-.406.418-4.695 4.502-4.695 4.502a1.095 1.095 0 0 1-1.576 0S4.924 9.581 4.516 9.163c-.409-.418-.436-1.17 0-1.615z"/>
        </g>

        <!-- viewBox="0 0 32 32" -->
        <g id="icon-github">
            <path clip-rule="evenodd" d="M16.003 0C7.17 0 .008 7.162.008 15.997c0 7.067 4.582 13.063 10.94 15.179.8.146 1.052-.328 1.052-.752 0-.38.008-1.442 0-2.777-4.449.967-5.371-2.107-5.371-2.107-.727-1.848-1.775-2.34-1.775-2.34-1.452-.992.109-.973.109-.973 1.605.113 2.451 1.649 2.451 1.649 1.427 2.443 3.743 1.737 4.654 1.329.146-1.034.56-1.739 1.017-2.139-3.552-.404-7.286-1.776-7.286-7.906 0-1.747.623-3.174 1.646-4.292-.165-.404-.715-2.031.157-4.234 0 0 1.343-.43 4.398 1.641a15.31 15.31 0 0 1 4.005-.538c1.359.006 2.727.183 4.005.538 3.055-2.07 4.396-1.641 4.396-1.641.872 2.203.323 3.83.159 4.234 1.023 1.118 1.644 2.545 1.644 4.292 0 6.146-3.74 7.498-7.304 7.893C19.479 23.548 20 24.508 20 26v4.428c0 .428.258.901 1.07.746C27.422 29.055 32 23.062 32 15.997 32 7.162 24.838 0 16.003 0z" fill-rule="evenodd"/>
        </g>

        <!-- viewBox="0 0 20 20" -->
        <g id="icon-file-archive">
            <path d="M18.399 2H1.6c-.332 0-.6.267-.6.6V5h18V2.6a.6.6 0 0 0-.601-.6zM2 16.6c0 .77.629 1.4 1.399 1.4h13.2c.77 0 1.4-.631 1.4-1.4V6H2v10.6zM7 8h6v2H7V8z"/>
        </g>
    </defs>
</svg>