<?xml version="1.0" encoding="UTF-8" standalone="no"?>
<!DOCTYPE svg PUBLIC "-//W3C//DTD SVG 1.1//EN" "http://www.w3.org/Graphics/SVG/1.1/DTD/svg11.dtd">
<svg width="100%" height="100%" viewBox="0 0 64 64" version="1.1" xmlns="http://www.w3.org/2000/svg" xmlns:xlink="http://www.w3.org/1999/xlink" xml:space="preserve" xmlns:serif="http://www.serif.com/" style="fill-rule:evenodd;clip-rule:evenodd;stroke-linejoin:round;stroke-miterlimit:2;">
    <circle cx="32" cy="32" r="32" style="fill:rgb(37,99,235);"/>
    <g id="_3138983_bunny_egg_rabbit_icon.svg" serif:id="3138983_bunny_egg_rabbit_icon.svg" transform="matrix(0.125,0,0,0.125,32,32)">
        <g transform="matrix(1,0,0,1,-256,-256)">
            <g>
                <path d="M364.7,397.3C365.8,390.8 393.9,340 393.9,340C394.1,339.4 394.3,338.9 394.5,338.4C417.3,276 356.3,235.2 335.6,223.5C331.5,221.2 327,220 322.3,220.1C308,220.3 274.2,220.6 253.3,218.9C241.1,217.9 248.5,214.5 229.6,213.7L312.8,284.8C270.6,281.6 260.9,316.2 260.9,316.2C237.1,373.5 309.6,389.7 309.6,389.7L259.9,389.7C210.2,389.7 225.3,425.4 225.3,425.4L365.9,424.3C365.8,424.3 363.6,403.8 364.7,397.3Z" style="fill:white;fill-rule:nonzero;"/>
                <path d="M259.8,381.1L270.7,381.1C263.7,375.8 257.2,369.2 252.9,360.8C245.6,346.8 245.5,330.8 252.7,313.4C256,302.4 267.9,283.6 291.9,277.8L228.6,221.2C219,240.1 202.5,251.7 191.7,256.1L190.6,256.5L189.3,256.7C178.9,257.8 168.9,258.4 159.7,258.4C150.9,258.4 143.1,257.9 136.2,257C138.4,265 142.3,278.3 146.3,287.7C147.6,291 148.4,294.5 148.5,298.1L149.5,394.1C149.5,394.1 124.6,399.5 126.8,420.1C126.8,420.1 176.5,436.3 181.9,401.7L188.4,344.4C188.4,344.4 208.6,371.9 228.8,388.1C236.4,383.4 246.8,381.1 259.8,381.1Z" style="fill:white;fill-rule:nonzero;"/>
                <path d="M421,321.6L405.7,331.2C404.9,334.4 403.9,337.7 402.7,341.1C402.5,341.7 402.3,342.2 402.1,342.7L401.5,344.1C390.5,364 378.6,386.5 374.6,395.6L380,396.9C422.7,388.8 421,321.6 421,321.6Z" style="fill:white;fill-rule:nonzero;"/>
                <path d="M259.6,142.9C271.2,138.7 282.7,133.3 293.4,128.2C311.7,119.5 327.4,112.1 341,112.1C343.2,112.1 345.4,112.3 347.4,112.7C350.2,113.3 352.7,114.1 354.8,115C359.5,100.9 349.7,92.9 340.4,88.6C333,85.2 324.4,86.2 317.8,90.9C294.2,107.9 247.4,133.4 217.1,149.4C219.6,149.7 222.1,149.9 224.7,149.9C236.1,149.9 248,147 259.6,142.9Z" style="fill:white;fill-rule:nonzero;"/>
                <path d="M188.5,248.1C188.5,248.1 232.5,230.1 227.4,180.3C227.4,180.3 332.6,191.1 356.4,158C356.4,158 373.7,127 345.6,121.2C317.5,115.4 262,167.3 210.8,157.2C159.6,147.1 148.8,142.1 116.4,168.7C84,195.4 91.9,228.5 91.9,228.5C91.9,228.5 108.5,256.7 188.5,248.1ZM148.5,191.8L148,191.8C143.2,191.8 139.3,187.9 139.3,183.1C139.3,178.3 143.2,174.4 148,174.4L148.5,174.4C153.3,174.4 157.2,178.3 157.2,183.1C157.1,188 153.3,191.8 148.5,191.8Z" style="fill:white;fill-rule:nonzero;"/>
            </g>
        </g>
    </g>
</svg>
